<?xml version="1.0" standalone="no"?>
<!DOCTYPE svg PUBLIC "-//W3C//DTD SVG 20010904//EN"
 "http://www.w3.org/TR/2001/REC-SVG-20010904/DTD/svg10.dtd">
<svg version="1.0" xmlns="http://www.w3.org/2000/svg"
 width="400.000000pt" height="600.000000pt" viewBox="0 0 400.000000 600.000000"
 preserveAspectRatio="xMidYMid meet">
<g transform="translate(0.000000,600.000000) scale(0.100000,-0.100000)"
fill="#000000" stroke="none">
<path d="M324 3889 c-18 -20 -19 -52 -19 -1044 0 -992 1 -1024 19 -1044 l19
-21 1658 0 1658 0 15 22 c14 20 16 136 16 1043 0 907 -2 1023 -16 1043 l-15
22 -1658 0 -1658 0 -19 -21z m3336 -1044 l0 -1035 -1660 0 -1660 0 0 1035 0
1035 1660 0 1660 0 0 -1035z"/>
<path d="M420 2990 l0 -810 1578 0 1577 0 1 810 1 810 -1579 0 -1578 0 0 -810z
m3120 653 c0 -71 0 -360 0 -643 0 -283 0 -577 0 -652 l0 -138 -216 0 c-136 0
-213 4 -209 10 3 5 18 7 33 4 21 -4 33 1 51 20 14 14 35 26 47 26 23 0 64 42
64 65 0 6 9 20 20 30 11 10 20 27 20 37 0 10 11 29 25 41 19 16 27 36 32 74 3
32 13 59 24 69 22 20 24 47 8 93 -9 24 -9 35 0 44 19 19 12 51 -17 91 -19 25
-27 47 -24 62 3 17 -4 32 -26 52 -17 16 -32 41 -34 58 -2 24 -13 34 -63 59
-55 27 -68 30 -155 29 -117 -1 -168 -20 -177 -64 -3 -17 -9 -30 -14 -30 -5 0
-25 -14 -44 -32 -29 -25 -35 -36 -30 -55 4 -18 -2 -33 -25 -59 -31 -36 -38
-62 -20 -80 7 -7 4 -25 -10 -56 -31 -71 -36 -132 -14 -165 10 -16 17 -35 16
-44 -2 -8 7 -24 18 -34 11 -10 20 -23 20 -30 0 -7 9 -23 21 -36 11 -13 27 -37
35 -54 16 -35 60 -85 74 -85 5 0 24 -9 42 -20 l33 -20 -1297 0 -1298 0 0 780
0 780 1545 0 1545 0 0 -127z m-272 -625 c83 -42 63 -65 -23 -27 -40 18 -60 20
-134 16 -47 -3 -101 -9 -118 -12 -38 -8 -45 8 -13 25 67 36 215 35 288 -2z
m13 -65 c70 -35 105 -65 94 -82 -3 -7 -25 2 -55 23 -66 45 -137 68 -207 66
-88 -2 -88 -3 -72 16 10 13 29 15 94 12 66 -2 92 -9 146 -35z m-291 3 c0 -18
-89 -69 -108 -61 -20 7 -6 22 46 50 55 28 62 30 62 11z m227 -31 c63 -19 162
-91 192 -139 39 -62 13 -58 -53 9 -81 83 -136 109 -236 111 -41 1 -76 6 -78
12 -8 24 103 28 175 7z m-207 -19 c0 -8 -24 -28 -54 -44 -29 -17 -68 -48 -85
-69 -24 -29 -33 -35 -43 -25 -16 16 59 94 122 127 53 28 60 30 60 11z m224
-45 c41 -18 66 -44 54 -56 -2 -2 -28 8 -58 23 -163 81 -370 -43 -396 -237 -9
-68 -29 -62 -28 8 4 121 115 247 249 282 45 12 128 3 179 -20z m-9 -55 c83
-38 137 -118 151 -223 8 -61 -2 -123 -19 -123 -8 0 -12 24 -13 78 -1 88 -16
131 -65 187 -41 46 -100 74 -156 75 -32 0 -43 4 -43 15 0 24 86 19 145 -9z
m-181 -5 c3 -5 -10 -18 -30 -30 -62 -37 -91 -21 -31 18 35 22 53 26 61 12z
m319 -43 c34 -46 54 -88 58 -122 6 -45 -18 -43 -31 3 -6 22 -26 63 -45 91 -40
59 -40 60 -21 60 8 0 26 -15 39 -32z m-168 3 c92 -43 127 -111 124 -246 -1
-51 1 -97 4 -102 9 -15 -8 -34 -25 -28 -13 5 -15 22 -11 110 5 93 4 108 -17
150 -53 110 -194 132 -277 43 -26 -27 -53 -88 -53 -118 0 -19 -24 -28 -33 -12
-9 15 20 102 46 135 32 42 118 87 166 87 20 0 54 -9 76 -19z m-279 -88 c-14
-28 -30 -80 -35 -116 -11 -75 -16 -87 -38 -87 -11 0 -14 6 -8 23 4 12 11 47
16 78 10 67 23 102 50 141 34 47 44 19 15 -39z m268 36 c14 -7 38 -30 53 -52
26 -38 28 -47 27 -136 0 -76 -5 -108 -23 -151 -27 -65 -66 -120 -87 -120 -19
0 -19 1 19 58 37 54 67 156 67 224 0 54 -30 121 -64 144 -19 12 -38 15 -67 11
-70 -9 -101 -52 -119 -162 -11 -69 -37 -132 -63 -154 -27 -22 -28 6 -2 56 14
26 30 80 36 119 12 82 35 126 81 154 37 22 103 26 142 9z m-2 -70 c63 -75 32
-257 -62 -371 -17 -21 -40 -38 -51 -38 -27 0 -24 7 21 57 57 60 82 123 88 215
5 92 -10 128 -57 128 -42 0 -59 -27 -77 -121 -16 -87 -35 -128 -78 -168 -35
-33 -55 -17 -22 18 34 36 62 105 70 172 8 63 35 115 69 129 32 13 79 3 99 -21z
m-32 -48 c19 -37 5 -162 -27 -224 -20 -40 -83 -107 -99 -107 -21 0 -17 14 12
41 43 40 84 133 91 205 4 43 2 64 -5 64 -6 0 -14 -16 -17 -35 -3 -19 -8 -52
-11 -72 -13 -82 -107 -204 -136 -175 -7 7 0 19 25 42 47 41 74 99 86 183 5 38
15 75 22 83 16 20 46 17 59 -5z m-228 -119 c-13 -43 -35 -67 -52 -57 -7 4 -5
15 5 33 8 15 20 40 25 56 8 22 14 26 22 18 8 -8 8 -21 0 -50z m363 -112 c9
-15 -22 -60 -41 -60 -9 0 -14 3 -12 8 32 66 40 73 53 52z"/>
<path d="M420 2004 l0 -124 470 0 470 0 0 123 0 122 -470 2 -470 1 0 -124z
m900 -4 l0 -90 -435 0 -435 0 0 88 c0 49 2 91 4 93 2 2 198 3 435 1 l431 -2 0
-90z"/>
<path d="M2640 2004 l0 -124 468 0 467 0 0 125 0 126 -467 -2 -468 -1 0 -124z
m896 84 c3 -3 6 -98 5 -145 l-1 -33 -435 0 -435 0 0 90 0 90 298 2 c292 3 563
1 568 -4z"/>
<path d="M1420 2005 l0 -115 30 0 30 0 0 115 0 115 -30 0 -30 0 0 -115z"/>
<path d="M1545 2005 l0 -115 28 0 27 0 0 115 0 115 -27 0 -28 0 0 -115z"/>
<path d="M1655 2005 c0 -113 0 -115 23 -115 22 0 22 2 22 115 0 113 0 115 -22
115 -23 0 -23 -2 -23 -115z"/>
<path d="M1740 2005 l0 -115 25 0 25 0 -3 115 c-2 112 -3 115 -24 115 -23 0
-23 -2 -23 -115z"/>
<path d="M1840 2005 l0 -115 25 0 25 0 0 115 0 115 -25 0 -25 0 0 -115z"/>
<path d="M1950 2005 c0 -108 1 -115 20 -115 19 0 20 7 20 115 0 108 -1 115
-20 115 -19 0 -20 -7 -20 -115z"/>
<path d="M2030 2005 l0 -115 25 0 25 0 0 115 0 115 -25 0 -25 0 0 -115z"/>
<path d="M2140 2005 l0 -115 25 0 25 0 0 115 0 115 -25 0 -25 0 0 -115z"/>
<path d="M2240 2005 l0 -115 25 0 25 0 0 115 0 115 -25 0 -25 0 0 -115z"/>
<path d="M2340 2005 l0 -115 30 0 30 0 0 115 0 115 -30 0 -30 0 0 -115z"/>
<path d="M2460 2005 c0 -108 1 -115 20 -115 19 0 20 7 20 115 0 108 -1 115
-20 115 -19 0 -20 -7 -20 -115z"/>
<path d="M2540 2005 c0 -108 1 -115 20 -115 19 0 20 7 20 115 0 108 -1 115
-20 115 -19 0 -20 -7 -20 -115z"/>
</g>
</svg>
